<svg width="20" height="22" viewBox="0 0 20 22" fill="none" xmlns="http://www.w3.org/2000/svg">
<path d="M15.7503 3.09L13.2203 5.03L14.1303 8.09L11.5003 6.28L8.87031 8.09L9.78031 5.03L7.25031 3.09L10.4403 3L11.5003 0L12.5603 3L15.7503 3.09ZM19.2503 10L17.6103 11.25L18.2003 13.23L16.5003 12.06L14.8003 13.23L15.3903 11.25L13.7503 10L15.8103 9.95L16.5003 8L17.1903 9.95L19.2503 10ZM16.9703 14.95C17.8003 14.87 18.6903 16.05 18.1603 16.8C17.8403 17.25 17.5003 17.67 17.0803 18.07C13.1703 22 6.84031 22 2.94031 18.07C-0.969687 14.17 -0.969687 7.83 2.94031 3.93C3.34031 3.53 3.76031 3.17 4.21031 2.85C4.96031 2.32 6.14031 3.21 6.06031 4.04C5.79031 6.9 6.75031 9.87 8.95031 12.06C9.98992 13.1052 11.2486 13.9066 12.6355 14.4064C14.0224 14.9062 15.5029 15.0918 16.9703 14.95ZM15.3303 16.97C12.3946 16.8012 9.62132 15.5675 7.53031 13.5C5.36031 11.31 4.20031 8.5 4.04031 5.68C1.23031 8.82 1.34031 13.64 4.35031 16.66C7.37031 19.67 12.1903 19.78 15.3303 16.97Z" fill="#292D32"/>
</svg>
