<svg width="19" height="19" viewBox="0 0 19 19" fill="none" xmlns="http://www.w3.org/2000/svg">
<path d="M15.2426 11.03C15.4999 11.0945 15.721 11.2585 15.8573 11.4859C15.9937 11.7134 16.034 11.9857 15.9696 12.243L15.2796 15H15.9996V14C15.9996 13.7348 16.105 13.4804 16.2925 13.2929C16.48 13.1054 16.7344 13 16.9996 13C17.2648 13 17.5192 13.1054 17.7067 13.2929C17.8943 13.4804 17.9996 13.7348 17.9996 14V15C18.2648 15 18.5192 15.1054 18.7067 15.2929C18.8943 15.4804 18.9996 15.7348 18.9996 16C18.9996 16.2652 18.8943 16.5196 18.7067 16.7071C18.5192 16.8946 18.2648 17 17.9996 17V18C17.9996 18.2652 17.8943 18.5196 17.7067 18.7071C17.5192 18.8946 17.2648 19 16.9996 19C16.7344 19 16.48 18.8946 16.2925 18.7071C16.105 18.5196 15.9996 18.2652 15.9996 18V17H13.9996C13.8477 17 13.6978 16.9653 13.5613 16.8987C13.4248 16.8321 13.3053 16.7352 13.2118 16.6155C13.1183 16.4958 13.0533 16.3564 13.0217 16.2078C12.9901 16.0592 12.9928 15.9054 13.0296 15.758L14.0296 11.758C14.0939 11.5008 14.2576 11.2796 14.4849 11.1431C14.7122 11.0066 14.9854 10.9659 15.2426 11.03ZM10.4996 11C11.1343 10.9999 11.7453 11.2412 12.2087 11.675C12.672 12.1088 12.953 12.7026 12.9946 13.336L12.9996 13.5V13.825C12.9996 14.425 12.8096 15.006 12.4586 15.488L12.3186 15.663L11.1746 17H11.9996C12.2545 17.0003 12.4996 17.0979 12.685 17.2728C12.8703 17.4478 12.9818 17.687 12.9968 17.9414C13.0117 18.1958 12.9289 18.4464 12.7653 18.6418C12.6018 18.8373 12.3697 18.9629 12.1166 18.993L11.9996 19H8.99961C8.81924 19.0001 8.64221 18.9514 8.48727 18.8591C8.33232 18.7668 8.20522 18.6343 8.11944 18.4756C8.03365 18.317 7.99237 18.1381 7.99997 17.9579C8.00757 17.7777 8.06377 17.6029 8.16261 17.452L8.24061 17.349L10.8006 14.362C10.9023 14.2427 10.9682 14.0971 10.9906 13.942L10.9996 13.825V13.5C10.9996 13.3674 10.9469 13.2402 10.8532 13.1464C10.7594 13.0527 10.6322 13 10.4996 13C10.367 13 10.2398 13.0527 10.1461 13.1464C10.0523 13.2402 9.99961 13.3674 9.99961 13.5C9.99961 13.7652 9.89425 14.0196 9.70671 14.2071C9.51918 14.3946 9.26482 14.5 8.99961 14.5C8.73439 14.5 8.48004 14.3946 8.2925 14.2071C8.10496 14.0196 7.99961 13.7652 7.99961 13.5C7.99961 12.837 8.263 12.2011 8.73184 11.7322C9.20068 11.2634 9.83657 11 10.4996 11ZM8.99961 0C13.1946 0 16.7166 2.87 17.7156 6.75C17.7819 7.00686 17.7435 7.27954 17.6087 7.50806C17.474 7.73657 17.254 7.9022 16.9971 7.9685C16.7402 8.0348 16.4676 7.99635 16.239 7.86161C16.0105 7.72686 15.8449 7.50686 15.7786 7.25C15.4897 6.13314 14.9292 5.10498 14.1471 4.257C13.3649 3.40902 12.3853 2.76749 11.2954 2.38947C10.2054 2.01146 9.03898 1.90868 7.89974 2.09029C6.7605 2.27189 5.6838 2.73224 4.76541 3.43039C3.84702 4.12854 3.11541 5.04284 2.63567 6.09198C2.15592 7.14112 1.9429 8.29257 2.01556 9.4439C2.08822 10.5952 2.44431 11.7108 3.05215 12.6913C3.65999 13.6718 4.50073 14.4868 5.49961 15.064C5.71727 15.2024 5.87306 15.4195 5.93442 15.67C5.99578 15.9205 5.95798 16.1851 5.8289 16.4084C5.69982 16.6317 5.48946 16.7965 5.24175 16.8683C4.99404 16.9402 4.72815 16.9136 4.49961 16.794C2.78394 15.8033 1.44309 14.2743 0.684994 12.4439C-0.0731038 10.6136 -0.206083 8.58423 0.306679 6.6706C0.819441 4.75697 1.94929 3.066 3.52101 1.85993C5.09272 0.653861 7.01847 8.71628e-05 8.99961 0ZM8.99961 4C9.24454 4.00003 9.48094 4.08996 9.66398 4.25272C9.84701 4.41547 9.96395 4.63975 9.99261 4.883L9.99961 5V9C9.99957 9.24493 9.90965 9.48134 9.74689 9.66437C9.58413 9.84741 9.35986 9.96434 9.11661 9.993L8.99961 10H6.99961C6.74473 9.99972 6.49957 9.90212 6.31424 9.72715C6.1289 9.55218 6.01737 9.31305 6.00243 9.05861C5.9875 8.80416 6.07028 8.55362 6.23387 8.35817C6.39746 8.16271 6.62951 8.0371 6.88261 8.007L6.99961 8H7.99961V5C7.99961 4.73478 8.10496 4.48043 8.2925 4.29289C8.48004 4.10536 8.73439 4 8.99961 4Z" fill="#292D32"/>
</svg>
