<svg width="22" height="22" viewBox="0 0 22 22" xmlns="http://www.w3.org/2000/svg">
<path d="M11 0.25C11.1989 0.25 11.3897 0.329018 11.5303 0.46967C11.671 0.610322 11.75 0.801088 11.75 1V2C11.75 2.19891 11.671 2.38968 11.5303 2.53033C11.3897 2.67098 11.1989 2.75 11 2.75C10.8011 2.75 10.6103 2.67098 10.4697 2.53033C10.329 2.38968 10.25 2.19891 10.25 2V1C10.25 0.801088 10.329 0.610322 10.4697 0.46967C10.6103 0.329018 10.8011 0.25 11 0.25ZM11 5.25C9.47501 5.25 8.01247 5.8558 6.93414 6.93414C5.8558 8.01247 5.25 9.47501 5.25 11C5.25 12.525 5.8558 13.9875 6.93414 15.0659C8.01247 16.1442 9.47501 16.75 11 16.75C12.525 16.75 13.9875 16.1442 15.0659 15.0659C16.1442 13.9875 16.75 12.525 16.75 11C16.75 9.47501 16.1442 8.01247 15.0659 6.93414C13.9875 5.8558 12.525 5.25 11 5.25ZM4.46 3.399C4.31861 3.26231 4.1292 3.18663 3.93255 3.18824C3.7359 3.18986 3.54775 3.26865 3.40863 3.40764C3.26951 3.54663 3.19054 3.7347 3.18874 3.93135C3.18694 4.128 3.26245 4.31748 3.399 4.459L4.106 5.166C4.17466 5.23969 4.25746 5.29879 4.34946 5.33978C4.44146 5.38077 4.54077 5.40281 4.64148 5.40459C4.74218 5.40637 4.84221 5.38784 4.9356 5.35012C5.02899 5.3124 5.11382 5.25626 5.18504 5.18504C5.25626 5.11382 5.3124 5.02899 5.35012 4.9356C5.38784 4.84221 5.40637 4.74218 5.40459 4.64148C5.40281 4.54077 5.38077 4.44146 5.33978 4.34946C5.29879 4.25746 5.23969 4.17466 5.166 4.106L4.46 3.399ZM21.75 11C21.75 11.1989 21.671 11.3897 21.5303 11.5303C21.3897 11.671 21.1989 11.75 21 11.75H20C19.8011 11.75 19.6103 11.671 19.4697 11.5303C19.329 11.3897 19.25 11.1989 19.25 11C19.25 10.8011 19.329 10.6103 19.4697 10.4697C19.6103 10.329 19.8011 10.25 20 10.25H21C21.1989 10.25 21.3897 10.329 21.5303 10.4697C21.671 10.6103 21.75 10.8011 21.75 11ZM18.601 4.46C18.6727 4.39085 18.7298 4.30812 18.7692 4.21663C18.8085 4.12515 18.8293 4.02674 18.8302 3.92716C18.8311 3.82758 18.8122 3.72881 18.7745 3.63662C18.7368 3.54443 18.6812 3.46066 18.6108 3.39021C18.5404 3.31976 18.4567 3.26403 18.3645 3.22628C18.2724 3.18852 18.1736 3.1695 18.0741 3.17032C17.9745 3.17113 17.876 3.19178 17.7845 3.23104C17.693 3.2703 17.6102 3.3274 17.541 3.399L16.834 4.106C16.7603 4.17466 16.7012 4.25746 16.6602 4.34946C16.6192 4.44146 16.5972 4.54077 16.5954 4.64148C16.5936 4.74218 16.6122 4.84221 16.6499 4.9356C16.6876 5.02899 16.7437 5.11382 16.815 5.18504C16.8862 5.25626 16.971 5.3124 17.0644 5.35012C17.1578 5.38784 17.2578 5.40637 17.3585 5.40459C17.4592 5.40281 17.5585 5.38077 17.6505 5.33978C17.7425 5.29879 17.8253 5.23969 17.894 5.166L18.601 4.46ZM11 19.25C11.1989 19.25 11.3897 19.329 11.5303 19.4697C11.671 19.6103 11.75 19.8011 11.75 20V21C11.75 21.1989 11.671 21.3897 11.5303 21.5303C11.3897 21.671 11.1989 21.75 11 21.75C10.8011 21.75 10.6103 21.671 10.4697 21.5303C10.329 21.3897 10.25 21.1989 10.25 21V20C10.25 19.8011 10.329 19.6103 10.4697 19.4697C10.6103 19.329 10.8011 19.25 11 19.25ZM17.894 16.834C17.8253 16.7603 17.7425 16.7012 17.6505 16.6602C17.5585 16.6192 17.4592 16.5972 17.3585 16.5954C17.2578 16.5936 17.1578 16.6122 17.0644 16.6499C16.971 16.6876 16.8862 16.7437 16.815 16.815C16.7437 16.8862 16.6876 16.971 16.6499 17.0644C16.6122 17.1578 16.5936 17.2578 16.5954 17.3585C16.5972 17.4592 16.6192 17.5585 16.6602 17.6505C16.7012 17.7425 16.7603 17.8253 16.834 17.894L17.541 18.601C17.6097 18.6747 17.6925 18.7338 17.7845 18.7748C17.8765 18.8158 17.9758 18.8378 18.0765 18.8396C18.1772 18.8414 18.2772 18.8228 18.3706 18.7851C18.464 18.7474 18.5488 18.6913 18.62 18.62C18.6913 18.5488 18.7474 18.464 18.7851 18.3706C18.8228 18.2772 18.8414 18.1772 18.8396 18.0765C18.8378 17.9758 18.8158 17.8765 18.7748 17.7845C18.7338 17.6925 18.6747 17.6097 18.601 17.541L17.894 16.834ZM2.75 11C2.75 11.1989 2.67098 11.3897 2.53033 11.5303C2.38968 11.671 2.19891 11.75 2 11.75H1C0.801088 11.75 0.610322 11.671 0.46967 11.5303C0.329018 11.3897 0.25 11.1989 0.25 11C0.25 10.8011 0.329018 10.6103 0.46967 10.4697C0.610322 10.329 0.801088 10.25 1 10.25H2C2.19891 10.25 2.38968 10.329 2.53033 10.4697C2.67098 10.6103 2.75 10.8011 2.75 11ZM5.166 17.894C5.29848 17.7518 5.3706 17.5638 5.36718 17.3695C5.36375 17.1752 5.28503 16.9898 5.14762 16.8524C5.01021 16.715 4.82482 16.6363 4.63052 16.6328C4.43622 16.6294 4.24817 16.7015 4.106 16.834L3.399 17.541C3.26652 17.6832 3.1944 17.8712 3.19782 18.0655C3.20125 18.2598 3.27997 18.4452 3.41738 18.5826C3.55479 18.72 3.74018 18.7987 3.93448 18.8022C4.12878 18.8056 4.31682 18.7335 4.459 18.601L5.166 17.894Z" fill="#292D32"/>
</svg>
