<svg width="30" height="30" viewBox="0 0 30 30" fill="none" xmlns="http://www.w3.org/2000/svg">
<path d="M4.36914 15.62C4.36914 15.38 4.44914 15.18 4.61914 15.01C4.79914 14.84 4.99914 14.76 5.21914 14.76H7.25914C7.48914 14.76 7.67914 14.84 7.83914 15.01C7.98914 15.18 8.06914 15.38 8.06914 15.62C8.06914 15.86 7.98914 16.06 7.83914 16.22C7.68914 16.39 7.48914 16.47 7.25914 16.47H5.22914C4.99914 16.47 4.79914 16.39 4.62914 16.22C4.54725 16.143 4.48195 16.05 4.43724 15.9468C4.39253 15.8437 4.36936 15.7324 4.36914 15.62ZM7.22914 8.71C7.22914 8.48 7.30914 8.28 7.45914 8.1C7.65914 7.93 7.86914 7.85 8.09914 7.85C8.30914 7.85 8.50914 7.93 8.68914 8.1L10.1191 9.56C10.2791 9.71 10.3591 9.91 10.3591 10.15C10.3591 10.39 10.2791 10.59 10.1191 10.75C9.95914 10.91 9.75914 10.99 9.51914 10.99C9.27914 10.99 9.07914 10.91 8.92914 10.75L7.46914 9.32C7.39089 9.23917 7.32939 9.14366 7.28821 9.03897C7.24702 8.93428 7.22694 8.82248 7.22914 8.71ZM7.38914 18.02C7.38914 17.8 7.46914 17.61 7.61914 17.47C7.77914 17.33 7.98914 17.25 8.25914 17.25H13.9691C14.2391 17.25 14.4491 17.32 14.6091 17.47C14.7691 17.61 14.8491 17.8 14.8491 18.02C14.8491 18.29 14.7691 18.5 14.6191 18.66C14.4591 18.82 14.2491 18.9 13.9691 18.9H8.25914C7.98914 18.9 7.77914 18.82 7.61914 18.67C7.45914 18.52 7.38914 18.29 7.38914 18.02ZM8.37914 20.97C8.37914 20.75 8.46914 20.55 8.65914 20.37C8.73776 20.286 8.83263 20.2189 8.93798 20.1727C9.04333 20.1265 9.15697 20.1022 9.272 20.1013C9.38703 20.1004 9.50104 20.1228 9.60713 20.1673C9.71322 20.2117 9.80917 20.2773 9.88914 20.36C10.0491 20.54 10.1291 20.74 10.1291 20.97C10.1291 21.25 10.0491 21.46 9.89914 21.62C9.74914 21.78 9.52914 21.85 9.25914 21.85C9.03229 21.8526 8.81341 21.7665 8.64914 21.61C8.56026 21.5294 8.49004 21.4304 8.44341 21.3198C8.39677 21.2093 8.37484 21.0899 8.37914 20.97ZM9.78914 15.91V15.84C9.81914 14.58 10.2591 13.49 11.0991 12.56C11.9391 11.63 12.9691 11.07 14.1991 10.87H14.2491C14.4391 10.83 14.6991 10.81 15.0091 10.81C15.3191 10.81 15.5791 10.83 15.7691 10.87H15.8091C17.0291 11.06 18.0691 11.63 18.9091 12.56C19.7491 13.49 20.1891 14.58 20.2191 15.84V15.91C20.2191 16.07 20.1391 16.15 19.9891 16.15H18.8591C18.7391 16.15 18.6591 16.12 18.6091 16.06C18.5647 16.0105 18.5399 15.9465 18.5391 15.88C18.4991 14.95 18.1391 14.16 17.4591 13.51C16.7791 12.86 15.9691 12.54 15.0191 12.54C14.0691 12.54 13.2591 12.86 12.5791 13.51C11.8991 14.16 11.5391 14.95 11.4991 15.88C11.4991 15.94 11.4691 16 11.4191 16.06C11.3691 16.12 11.2791 16.15 11.1591 16.15H10.0291C9.86914 16.15 9.78914 16.07 9.78914 15.91ZM10.7991 20.97C10.7991 20.74 10.8791 20.54 11.0391 20.36C11.1991 20.19 11.4091 20.1 11.6691 20.1H15.4991C15.7191 20.1 15.9191 20.19 16.0991 20.37C16.2791 20.55 16.3791 20.75 16.3791 20.97C16.3791 21.23 16.2891 21.45 16.1091 21.61C15.9291 21.77 15.7291 21.85 15.4991 21.85H11.6691C11.3991 21.85 11.1891 21.77 11.0291 21.62C10.8691 21.46 10.7991 21.25 10.7991 20.97ZM14.1391 7.89V5.86C14.1391 5.62 14.2191 5.42 14.3891 5.25C14.5591 5.08 14.7591 5 14.9991 5C15.2391 5 15.4291 5.08 15.5991 5.25C15.7691 5.42 15.8491 5.62 15.8491 5.86V7.89C15.8491 8.12 15.7691 8.32 15.5991 8.47C15.4291 8.62 15.2291 8.71 14.9991 8.71C14.7691 8.71 14.5591 8.63 14.3991 8.48C14.2391 8.33 14.1391 8.12 14.1391 7.89ZM15.4991 18.02C15.4991 17.81 15.5891 17.63 15.7691 17.48C15.9491 17.33 16.1491 17.25 16.3791 17.25C16.6091 17.25 16.8091 17.33 16.9891 17.48C17.1691 17.63 17.2591 17.81 17.2591 18.02C17.2591 18.28 17.1691 18.5 16.9891 18.66C16.8091 18.82 16.6091 18.9 16.3791 18.9C16.1491 18.9 15.9391 18.82 15.7691 18.66C15.681 18.5788 15.6113 18.4797 15.5647 18.3693C15.5181 18.2589 15.4958 18.1398 15.4991 18.02ZM17.0391 20.97C17.0391 20.74 17.1191 20.54 17.2791 20.36C17.4391 20.19 17.6591 20.1 17.9191 20.1H19.7791C20.0391 20.1 20.2491 20.19 20.4091 20.36C20.5691 20.54 20.6491 20.74 20.6491 20.97C20.6491 21.25 20.5691 21.46 20.4191 21.62C20.2691 21.78 20.0491 21.85 19.7791 21.85H17.9191C17.6491 21.85 17.4391 21.77 17.2791 21.62C17.1191 21.46 17.0391 21.25 17.0391 20.97ZM17.9191 18.02C17.9191 17.81 18.0091 17.63 18.1891 17.48C18.3691 17.33 18.5691 17.25 18.7891 17.25H21.8591C22.0791 17.25 22.2591 17.32 22.3991 17.47C22.5391 17.62 22.6191 17.8 22.6191 18.02C22.6191 18.29 22.5491 18.5 22.4091 18.66C22.2691 18.82 22.0891 18.9 21.8591 18.9H18.7891C18.5591 18.9 18.3591 18.82 18.1791 18.66C18.0943 18.5768 18.0274 18.4771 17.9826 18.367C17.9379 18.2569 17.9163 18.1388 17.9191 18.02ZM19.6591 10.15C19.6591 9.9 19.7391 9.7 19.8891 9.56L21.3091 8.1C21.4891 7.93 21.6891 7.85 21.8991 7.85C22.1291 7.85 22.3291 7.93 22.4991 8.1C22.6691 8.27 22.7491 8.47 22.7491 8.71C22.7491 8.95 22.6691 9.16 22.5091 9.32L21.0491 10.74C20.8691 10.9 20.6691 10.98 20.4491 10.98C20.2191 10.98 20.0391 10.9 19.8891 10.74C19.813 10.6622 19.7534 10.5699 19.7139 10.4685C19.6743 10.3671 19.6557 10.2588 19.6591 10.15ZM21.9191 15.62C21.9191 15.39 21.9991 15.19 22.1591 15.01C22.3291 14.84 22.5191 14.76 22.7291 14.76H24.7491C24.9791 14.76 25.1791 14.85 25.3491 15.02C25.5191 15.19 25.6091 15.39 25.6091 15.62C25.6091 15.85 25.5191 16.05 25.3491 16.22C25.1791 16.39 24.9791 16.47 24.7491 16.47H22.7291C22.4991 16.47 22.2991 16.39 22.1491 16.22C21.9991 16.05 21.9191 15.86 21.9191 15.62Z" fill="#292D32"/>
</svg>
